<svg width="368" height="92" fill="none" xmlns="http://www.w3.org/2000/svg"><g clip-path="url(#a)"><path d="m7.337 36.322 5.212 20.08c1.139 4.39 2.19 8.494 2.935 12.576h.24c.899-3.994 2.19-8.23 3.505-12.575l6.439-20.081h6.023l6.11 19.752c1.467 4.74 2.606 8.91 3.504 12.904h.307c.76-4.325 1.762-8.604 3-12.817L50.24 36.41h7.096L44.612 75.913h-6.57l-6.023-18.852c-1.38-4.39-2.519-8.318-3.504-12.97h-.044c-.988 4.39-2.223 8.72-3.701 12.97l-6.351 18.786h-6.57L0 36.322h7.337ZM99.364 55.766c0 14.617-10.096 20.981-19.71 20.981-10.688 0-18.923-7.835-18.923-20.344 0-13.168 8.65-20.981 19.557-20.981 11.41 0 19.076 8.252 19.076 20.344Zm-31.296.395c0 8.67 4.971 15.187 11.98 15.187 7.008 0 11.98-6.452 11.98-15.362 0-6.694-3.33-15.187-11.805-15.187-8.476 0-12.155 7.857-12.155 15.362ZM108.431 48.656c0-4.653 0-8.78-.328-12.334h6.285l.241 7.747h.329a11.871 11.871 0 0 1 4.071-6.109 11.836 11.836 0 0 1 6.879-2.538 7.982 7.982 0 0 1 2.037.241v6.782a11.24 11.24 0 0 0-2.431-.242c-5.059 0-8.651 3.84-9.615 9.218a19.175 19.175 0 0 0-.372 3.445v21.07h-7.096v-27.28ZM135.435 17.864h7.161v57.983h-7.161V17.865ZM188.72 17.864v47.778c0 3.512 0 7.506.328 10.205h-6.439l-.306-6.869h-.176a14.593 14.593 0 0 1-5.613 5.876 14.56 14.56 0 0 1-7.877 1.959c-9.527 0-16.864-8.076-16.864-20.081 0-13.168 8.059-21.244 17.674-21.244a13.119 13.119 0 0 1 6.779 1.388 13.153 13.153 0 0 1 5.135 4.647h.153V17.864h7.206Zm-7.162 34.544c.01-1.019-.1-2.035-.328-3.028a10.56 10.56 0 0 0-3.725-6.014 10.52 10.52 0 0 0-6.678-2.304c-7.425 0-11.827 6.584-11.827 15.363 0 7.988 3.92 14.616 11.651 14.616a10.76 10.76 0 0 0 6.772-2.426 10.802 10.802 0 0 0 3.741-6.155c.267-1.047.4-2.124.394-3.204v-6.848Z" fill="#47585B"/><path d="M209.285 26.84v9.482h10.271v5.377h-10.271v21.31c0 4.916 1.401 7.68 5.387 7.68a13.437 13.437 0 0 0 4.161-.482l.329 5.377a17.359 17.359 0 0 1-6.373 1.075 9.902 9.902 0 0 1-7.731-3.116c-2.037-2.195-2.782-5.618-2.782-10.271V41.699h-6.11v-5.377h6.11v-7.265l7.009-2.216ZM227.637 48.656c0-4.653 0-8.78-.328-12.334h6.285l.241 7.747h.329a11.873 11.873 0 0 1 4.072-6.109 11.83 11.83 0 0 1 6.878-2.538 7.977 7.977 0 0 1 2.037.241v6.782a11.234 11.234 0 0 0-2.431-.242c-5.059 0-8.76 3.84-9.614 9.218a19.205 19.205 0 0 0-.329 3.358v21.068h-7.096l-.044-27.191ZM262.613 25.217a4.459 4.459 0 0 1-1.302 3.15 4.443 4.443 0 0 1-7.59-3.15 4.404 4.404 0 0 1 1.282-3.215 4.384 4.384 0 0 1 3.208-1.284 4.378 4.378 0 0 1 4.099 2.78 4.39 4.39 0 0 1 .303 1.719Zm-7.994 50.63V36.344h7.184v39.503h-7.184ZM273.761 49.226c0-5.07-.176-9.152-.329-12.904h6.439l.307 6.781h.153a15.502 15.502 0 0 1 5.943-5.792 15.459 15.459 0 0 1 8.073-1.89c9.527 0 16.711 8.077 16.711 20.082 0 14.221-8.76 21.244-17.937 21.244a13.774 13.774 0 0 1-6.885-1.5 13.805 13.805 0 0 1-5.248-4.71h-.175V92h-7.052V49.226Zm7.074 10.535c.025.987.135 1.971.328 2.94a11.106 11.106 0 0 0 3.934 6.057 11.064 11.064 0 0 0 6.819 2.349c7.578 0 11.98-6.211 11.98-15.363 0-7.922-4.161-14.682-11.739-14.682a11.416 11.416 0 0 0-6.924 2.592 11.464 11.464 0 0 0-3.895 6.296c-.3.953-.47 1.942-.503 2.941v6.87Z" fill="#FFBA08"/><path d="M-2.19 70.558c202.583 18.874 321.723-34.236 321.723-34.236S235.763 95.994-5.278 84.428" fill="#F5F8FA"/><path d="M202.364 65.84C275.973 54.537 316.248 36.54 316.248 36.54s-41.611 28.53-110.818 37.594" stroke="#FFBA08" stroke-miterlimit="10"/><path d="M10.775 72.094a841.444 841.444 0 0 0 191.589-6.254" stroke="#47585B" stroke-miterlimit="10"/><path d="M349.231 45.056c-1.139-7.154-2.19-13.914-3.307-20.959l-1.796 1.47a44.6 44.6 0 0 1-13.578 8.23 5.16 5.16 0 0 1-4.884-.394c-3.088-1.976-6.286-3.819-9.461-5.706a4.377 4.377 0 0 1 4.38-1.844c2.502.267 5.017.392 7.534.373a3.762 3.762 0 0 0 2.19-.746A9110.35 9110.35 0 0 0 356.59 3.007 12.03 12.03 0 0 1 364.846 0c2.716 0 3.855 1.8 2.694 4.39a11.274 11.274 0 0 1-2.606 3.423c-2.562 2.348-5.234 4.565-7.906 6.782a2.916 2.916 0 0 0-1.183 2.195c-.569 7.417-1.27 14.835-1.84 22.253a4.616 4.616 0 0 1-2.036 3.797c-.951.69-1.864 1.43-2.738 2.216Z" fill="#47585B"/><path d="M325.096 13.87c2.037-1.755 3.461-4.038 6.746-3.533 3.285.505 6.57.527 10.03.768l1.117.154c-2.496 2.194-4.774 4.038-7.074 5.947a1.155 1.155 0 0 1-.92.198 637.302 637.302 0 0 1-9.176-2.963c-.219-.066-.372-.286-.723-.57Z" fill="#47585B"/></g><defs><clipPath id="a"><path fill="#fff" d="M0 0h368v92H0z"/></clipPath></defs></svg>
